<?xml version="1.0" standalone="no"?>
<!DOCTYPE svg PUBLIC "-//W3C//DTD SVG 20010904//EN"
 "http://www.w3.org/TR/2001/REC-SVG-20010904/DTD/svg10.dtd">
<svg version="1.0" xmlns="http://www.w3.org/2000/svg"
 width="512.000000pt" height="512.000000pt" viewBox="0 0 512.000000 512.000000"
 preserveAspectRatio="xMidYMid meet">
<metadata>
Created by potrace 1.14, written by Peter Selinger 2001-2017
</metadata>
<g transform="translate(0.000000,512.000000) scale(0.100000,-0.100000)"
fill="#000000" stroke="none">
<path d="M248 5096 c-103 -42 -168 -111 -204 -216 -18 -52 -22 -3334 -4 -3400
31 -114 135 -211 257 -238 21 -5 513 -8 1093 -8 l1055 1 0 -555 0 -555 24 -36
c14 -20 41 -47 60 -60 l35 -24 1193 -3 c1177 -2 1194 -2 1233 18 46 23 85 71
97 120 4 19 8 841 7 1825 -1 1668 -2 1792 -18 1823 -21 41 -46 66 -88 89 -30
16 -63 18 -340 18 -170 0 -308 2 -309 5 0 3 -2 219 -3 480 l-1 475 -29 62
c-33 73 -103 144 -174 176 l-47 22 -1890 2 -1890 3 -57 -24z"/>
</g>
</svg>
